<mxfile host="app.diagrams.net" modified="2024-05-27T06:52:51.091Z" agent="Mozilla/5.0 (Windows NT 10.0; Win64; x64) AppleWebKit/537.36 (KHTML, like Gecko) Chrome/125.0.0.0 Safari/537.36 Edg/125.0.0.0" etag="A56awnor4vPgK33Dmv2K" version="24.4.2" type="github">
  <diagram name="Trang-1" id="CKeOaCZzpsmmcXEO4DyK">
    <mxGraphModel dx="868" dy="514" grid="1" gridSize="10" guides="1" tooltips="1" connect="1" arrows="1" fold="1" page="1" pageScale="1" pageWidth="827" pageHeight="1169" math="0" shadow="0">
      <root>
        <mxCell id="0" />
        <mxCell id="1" parent="0" />
        <mxCell id="OwNLMk1GjVaSDZsHJYaO-3" value="" style="edgeStyle=orthogonalEdgeStyle;rounded=0;orthogonalLoop=1;jettySize=auto;html=1;" edge="1" parent="1" source="OwNLMk1GjVaSDZsHJYaO-1" target="OwNLMk1GjVaSDZsHJYaO-2">
          <mxGeometry relative="1" as="geometry" />
        </mxCell>
        <mxCell id="OwNLMk1GjVaSDZsHJYaO-6" value="TPS5430" style="edgeLabel;html=1;align=center;verticalAlign=middle;resizable=0;points=[];" vertex="1" connectable="0" parent="OwNLMk1GjVaSDZsHJYaO-3">
          <mxGeometry x="-0.181" relative="1" as="geometry">
            <mxPoint x="7" y="-10" as="offset" />
          </mxGeometry>
        </mxCell>
        <mxCell id="OwNLMk1GjVaSDZsHJYaO-4" style="edgeStyle=orthogonalEdgeStyle;rounded=0;orthogonalLoop=1;jettySize=auto;html=1;entryX=0.5;entryY=1;entryDx=0;entryDy=0;" edge="1" parent="1" target="OwNLMk1GjVaSDZsHJYaO-1">
          <mxGeometry relative="1" as="geometry">
            <mxPoint x="220" y="209.97" as="targetPoint" />
            <mxPoint x="220" y="159.97" as="sourcePoint" />
            <Array as="points">
              <mxPoint x="220" y="80" />
              <mxPoint x="120" y="80" />
              <mxPoint x="120" y="240" />
              <mxPoint x="220" y="240" />
            </Array>
          </mxGeometry>
        </mxCell>
        <mxCell id="OwNLMk1GjVaSDZsHJYaO-5" value="MPPT Charging IC LTC 4162" style="edgeLabel;html=1;align=center;verticalAlign=middle;resizable=0;points=[];" vertex="1" connectable="0" parent="OwNLMk1GjVaSDZsHJYaO-4">
          <mxGeometry x="-0.4523" y="-1" relative="1" as="geometry">
            <mxPoint x="15" y="-9" as="offset" />
          </mxGeometry>
        </mxCell>
        <mxCell id="OwNLMk1GjVaSDZsHJYaO-1" value="INPUT VOLTAGE&lt;div&gt;7-18V&lt;/div&gt;" style="rounded=0;whiteSpace=wrap;html=1;" vertex="1" parent="1">
          <mxGeometry x="160" y="120" width="120" height="80" as="geometry" />
        </mxCell>
        <mxCell id="OwNLMk1GjVaSDZsHJYaO-8" value="" style="edgeStyle=orthogonalEdgeStyle;rounded=0;orthogonalLoop=1;jettySize=auto;html=1;" edge="1" parent="1" source="OwNLMk1GjVaSDZsHJYaO-2" target="OwNLMk1GjVaSDZsHJYaO-7">
          <mxGeometry relative="1" as="geometry" />
        </mxCell>
        <mxCell id="OwNLMk1GjVaSDZsHJYaO-9" value="RT9193-GB" style="edgeLabel;html=1;align=center;verticalAlign=middle;resizable=0;points=[];" vertex="1" connectable="0" parent="OwNLMk1GjVaSDZsHJYaO-8">
          <mxGeometry x="-0.0476" y="-1" relative="1" as="geometry">
            <mxPoint y="-11" as="offset" />
          </mxGeometry>
        </mxCell>
        <mxCell id="OwNLMk1GjVaSDZsHJYaO-2" value="5V" style="whiteSpace=wrap;html=1;rounded=0;" vertex="1" parent="1">
          <mxGeometry x="360" y="120" width="120" height="80" as="geometry" />
        </mxCell>
        <mxCell id="OwNLMk1GjVaSDZsHJYaO-7" value="3V" style="whiteSpace=wrap;html=1;rounded=0;" vertex="1" parent="1">
          <mxGeometry x="560" y="120" width="120" height="80" as="geometry" />
        </mxCell>
      </root>
    </mxGraphModel>
  </diagram>
</mxfile>
